inDegrees=yes
name=ik_tiny_file
DataType=double
version=3
OpenSimVersion=4.4-2022-07-23-0e9fedc
endheader
time	pelvis_tilt	pelvis_list	pelvis_rotation	pelvis_tx	pelvis_ty	pelvis_tz	hip_flexion_r	hip_adduction_r	hip_rotation_r	knee_angle_r	knee_angle_r_beta	ankle_angle_r	subtalar_angle_r	mtp_angle_r	hip_flexion_l	hip_adduction_l	hip_rotation_l	knee_angle_l	knee_angle_l_beta	ankle_angle_l	subtalar_angle_l	mtp_angle_l	lumbar_extension	lumbar_bending	lumbar_rotation	arm_flex_r	arm_add_r	arm_rot_r	elbow_flex_r	pro_sup_r	wrist_flex_r	wrist_dev_r	arm_flex_l	arm_add_l	arm_rot_l	elbow_flex_l	pro_sup_l	wrist_flex_l	wrist_dev_l
3.04	86.54368825520238	-16.45117651339978	27.77394531264055	0	0.9399999999999999	0	34.1241255118213	-9.836128665876069	0	46.70676275824526	0.8151867930792481	-4.119652506248761	0	0	34.1241255118213	-9.836128665876069	0	46.70676275824526	0.8151867930792481	-4.119652506248761	0	0	-89.95667137959775	26.90670516839052	23.30282103380573	-60.68890611002903	19.84375817058588	-34.4883132091891	67.23450073354429	44.23480240884994	0	4.994150357033208	4.200553370882808	-8.031793647373478	89.98925440968347	10.56622735107926	44.23480240884994	0	4.994150357033208
3.06	86.50855950796345	-16.5615137708783	27.74740159645125	0	0.9399999999999999	0	34.38309817235694	-9.848857601269998	0	46.96310783173568	0.8196608586329227	-4.147967413287422	0	0	34.38309817235694	-9.848857601269998	0	46.96310783173568	0.8196608586329227	-4.147967413287422	0	0	-89.95649157950758	26.88453403571923	23.23603534712571	-60.12049743907171	20.9700029542072	-34.87975245712957	70.06031251574127	44.28257211253028	0	4.994908584414407	4.219663914265512	-8.039689174814876	89.98926007007988	10.5931398027512	44.28257211253028	0	4.994908584414407
3.08	86.49617162499102	-16.63865358006212	27.73329431772193	0	0.9399999999999999	0	34.65297666701294	-9.861239994967871	0	47.23266014352173	0.8243654339799515	-4.177153944111693	0	0	34.65297666701294	-9.861239994967871	0	47.23266014352173	0.8243654339799515	-4.177153944111693	0	0	-89.95641684441826	26.87413454680658	23.1758418709514	-59.26716435125226	22.77377350468782	-35.05608353896682	73.25278708015175	44.32991243599864	0	4.995602063405711	4.200701934473907	-8.076890268636417	89.98929185449018	10.5401898758242	44.32991243599864	0	4.995602063405711
3.1	86.50000910136366	-16.72666413681914	27.73080548910231	0	0.9399999999999999	0	34.91408604537768	-9.87256447726821	0	47.49428436060137	0.8289316379709437	-4.205177665350305	0	0	34.91408604537768	-9.87256447726821	0	47.49428436060137	0.8289316379709437	-4.205177665350305	0	0	-89.95624772857693	26.87715788585298	23.1572338525827	-58.43771827127189	24.57873955291854	-35.36648101227518	76.52792747202119	44.37393656574121	0	4.996199481306474	4.207538323382838	-8.127249416136527	89.98927397228448	10.56850992116251	44.37393656574121	0	4.996199481306474
3.12	86.45731840920271	-16.79643579687593	27.72374593295945	0	0.9399999999999999	0	35.09052758746218	-9.879938478883235	0	47.67180892232174	0.8320300260761241	-4.224030120746889	0	0	35.09052758746218	-9.879938478883235	0	47.67180892232174	0.8320300260761241	-4.224030120746889	0	0	-89.95623095870326	26.8862620629186	23.16339581811825	-57.46810164381145	26.00684136667083	-35.49189675709794	79.75504358320916	44.40294178329864	0	4.996571540528767	4.261863980212774	-8.165146039486132	89.9892983952081	10.61539586081811	44.40294178329864	0	4.996571540528767
3.14	86.42181686642004	-16.84961774896045	27.73529995637158	0	0.9399999999999999	0	35.23065168894878	-9.885638946387504	0	47.81072023304164	0.8344544858164473	-4.239002530998599	0	0	35.23065168894878	-9.885638946387504	0	47.81072023304164	0.8344544858164473	-4.239002530998599	0	0	-89.95609763455781	26.90330816908624	23.19312312028182	-57.17555310335955	26.13855954758529	-35.67761531796047	83.08448805763209	44.42563013394258	0	4.996845365911988	4.269769417427271	-8.195881095908295	89.98926747682637	10.51452260786667	44.42563013394258	0	4.996845365911988
3.16	86.41482762235135	-16.89660249305846	27.73365723956509	0	0.9399999999999999	0	35.34549291641186	-9.890239868240661	0	47.92401841273174	0.8364319120885556	-4.2512672865837	0	0	35.34549291641186	-9.890239868240661	0	47.92401841273174	0.8364319120885556	-4.2512672865837	0	0	-89.95621190363116	26.88980825734974	23.22517531651657	-56.91650573178027	26.61434605920434	-35.51648210946249	86.65519439430939	44.44405364621453	0	4.997061007811804	4.258273707749863	-8.217577505297191	89.9892556526453	10.38477043966182	44.44405364621453	0	4.997061007811804
3.18	86.43211315390671	-16.8909311131394	27.75105945064845	0	0.9399999999999999	0	35.46318455758448	-9.894803311793909	0	48.04048635204412	0.8384646611025696	-4.263772546765975	0	0	35.46318455758448	-9.894803311793909	0	48.04048635204412	0.8384646611025696	-4.263772546765975	0	0	-89.95578227934237	26.909824581475	23.19251148359192	-56.56723468646236	26.89792311568725	-35.56638159150525	90.14449010976183	44.4624931376316	0	4.997268432166923	4.253340542439204	-8.265589974994576	89.9892812233067	10.37757734397894	44.4624931376316	0	4.997268432166923
3.2	86.43334835549614	-16.900635395029	27.76070156927094	0	0.9399999999999999	0	35.57933107896763	-9.899192760108269	0	48.15578373122756	0.840476979988241	-4.276068949227657	0	0	35.57933107896763	-9.899192760108269	0	48.15578373122756	0.840476979988241	-4.276068949227657	0	0	-89.95589581972992	26.95474923915671	23.21246704054298	-56.16695098852808	27.2630159023039	-35.67215486766193	93.6779845833054	44.48036360606841	0	4.997462652301155	4.353781584361124	-8.308421666267439	89.98928167171995	10.56798955590229	44.48036360606841	0	4.997462652301155
